<?xml version="1.0" encoding="UTF-8" standalone="no"?>
<!-- Created with Inkscape (http://www.inkscape.org/) -->

<svg
   xmlns:dc="http://purl.org/dc/elements/1.1/"
   xmlns:cc="http://creativecommons.org/ns#"
   xmlns:rdf="http://www.w3.org/1999/02/22-rdf-syntax-ns#"
   xmlns:svg="http://www.w3.org/2000/svg"
   xmlns="http://www.w3.org/2000/svg"
   xmlns:sodipodi="http://sodipodi.sourceforge.net/DTD/sodipodi-0.dtd"
   xmlns:inkscape="http://www.inkscape.org/namespaces/inkscape"
   width="707"
   height="86"
   viewBox="0 0 187.06041 22.754167"
   version="1.1"
   id="svg4559"
   sodipodi:docname="py.amsterdam.svg"
   inkscape:version="0.92.4 (5da689c313, 2019-01-14)">
  <defs
     id="defs4553" />
  <sodipodi:namedview
     id="base"
     pagecolor="#ffffff"
     bordercolor="#666666"
     borderopacity="1.0"
     inkscape:pageopacity="0.0"
     inkscape:pageshadow="2"
     inkscape:zoom="0.98994949"
     inkscape:cx="520.81728"
     inkscape:cy="71.645383"
     inkscape:document-units="mm"
     inkscape:current-layer="layer1"
     showgrid="false"
     units="px"
     inkscape:window-width="1920"
     inkscape:window-height="1001"
     inkscape:window-x="-9"
     inkscape:window-y="-9"
     inkscape:window-maximized="1" />
  <metadata
     id="metadata4556">
    <rdf:RDF>
      <cc:Work
         rdf:about="">
        <dc:format>image/svg+xml</dc:format>
        <dc:type
           rdf:resource="http://purl.org/dc/dcmitype/StillImage" />
        <dc:title></dc:title>
      </cc:Work>
    </rdf:RDF>
  </metadata>
  <g
     inkscape:label="Layer 1"
     inkscape:groupmode="layer"
     id="layer1"
     transform="translate(0,-274.24582)">
    <flowRoot
       xml:space="preserve"
       id="flowRoot4561"
       style="font-style:normal;font-weight:normal;font-size:40px;line-height:1.25;font-family:sans-serif;letter-spacing:0px;word-spacing:0px;fill:#000000;fill-opacity:1;stroke:none"
       transform="scale(0.26458333)"><flowRegion
         id="flowRegion4563"><rect
           id="rect4565"
           width="628.31488"
           height="152.53304"
           x="66.670067"
           y="335.61084" /></flowRegion><flowPara
         id="flowPara4567"
         style="font-style:normal;font-variant:normal;font-weight:900;font-stretch:normal;font-size:74.66666412px;font-family:Montserrat;-inkscape-font-specification:'Montserrat Heavy'"><flowSpan
   style="fill:#306998;fill-opacity:1"
   id="flowSpan4569">p</flowSpan><flowSpan
   style="fill:#ffd43b;fill-opacity:1"
   id="flowSpan5125">y</flowSpan>.<flowSpan
   style="fill:#da121a;fill-opacity:1"
   id="flowSpan5165">am</flowSpan>sterdam</flowPara></flowRoot>    <rect
       style="opacity:0;fill:#da121a;fill-opacity:1;stroke-width:0.26458332"
       id="rect5173"
       width="160.62898"
       height="31.537804"
       x="18.976137"
       y="32.937706" />
    <rect
       style="opacity:0;fill:#da121a;fill-opacity:1;stroke-width:0.18317553"
       id="rect5210"
       width="152.78368"
       height="19.038206"
       x="26.459681"
       y="32.686649" />
    <rect
       style="opacity:0;fill:#ff0000;fill-opacity:1;stroke-width:0.26458332"
       id="rect5277"
       width="138.71288"
       height="34.477768"
       x="-1.0690781"
       y="207.46469" />
    <g
       aria-label="py.amsterdam"
       transform="matrix(0.31811423,0,0,0.31811423,-20.589426,163.4188)"
       style="font-style:normal;font-weight:normal;font-size:40px;line-height:1.25;font-family:sans-serif;letter-spacing:0px;word-spacing:0px;fill:#000000;fill-opacity:1;stroke:none"
       id="flowRoot4561-5">
      <path
         d="m 97.656587,362.64764 q 5.376003,0 9.856003,2.61334 4.55466,2.53866 7.168,7.392 2.688,4.85333 2.688,11.2 0,6.34666 -2.688,11.2 -2.61334,4.77866 -7.168,7.392 -4.48,2.53866 -9.856003,2.53866 -6.794666,0 -10.378666,-3.50933 v 17.248 H 70.403255 v -55.328 h 16.053333 v 3.36 q 3.658666,-4.10667 11.199999,-4.10667 z m -4.031999,29.19467 q 2.912,0 4.778666,-2.09067 1.866666,-2.09066 1.866666,-5.89866 0,-3.808 -1.866666,-5.89867 -1.866666,-2.16533 -4.778666,-2.16533 -2.912,0 -4.778667,2.16533 -1.866666,2.09067 -1.866666,5.89867 0,3.808 1.866666,5.89866 1.866667,2.09067 4.778667,2.09067 z"
         style="fill:#306998;fill-opacity:1"
         id="path5252"
         inkscape:connector-curvature="0" />
      <path
         d="m 168.08359,363.39431 -16.8,41.664 q -3.21067,7.98933 -7.98934,11.2 -4.77866,3.21066 -11.72266,3.21066 -3.43467,0 -6.944,-1.04533 -3.43467,-0.97067 -5.45067,-2.61333 l 5.6,-11.57333 q 1.26933,0.97066 2.83733,1.568 1.64267,0.59733 3.136,0.59733 2.76267,0 4.18134,-1.64267 l -17.17334,-41.36533 h 17.32267 l 8.43733,21.87733 8.58667,-21.87733 z"
         style="fill:#ffd43b;fill-opacity:1"
         id="path5254"
         inkscape:connector-curvature="0" />
      <path
         d="m 178.35258,404.98364 q -4.256,0 -7.09333,-2.688 -2.76267,-2.76266 -2.76267,-7.01866 0,-4.256 2.76267,-6.86934 2.83733,-2.688 7.09333,-2.688 4.256,0 7.01867,2.688 2.83733,2.61334 2.83733,6.86934 0,4.256 -2.83733,7.01866 -2.76267,2.688 -7.01867,2.688 z"
         style="font-style:normal;font-variant:normal;font-weight:900;font-stretch:normal;font-size:74.66666412px;font-family:Montserrat;-inkscape-font-specification:'Montserrat Heavy'"
         id="path5256"
         inkscape:connector-curvature="0" />
      <path
         d="m 211.77992,362.64764 q 10.752,0 16.42666,4.85334 5.67467,4.77866 5.67467,14.784 v 21.952 h -15.68 v -5.376 q -2.912,6.12266 -11.57333,6.12266 -4.85334,0 -8.288,-1.64266 -3.36,-1.71734 -5.152,-4.55467 -1.71734,-2.912 -1.71734,-6.496 0,-6.048 4.62934,-9.184 4.62933,-3.136 14.03733,-3.136 h 6.79467 q -0.82134,-4.77867 -7.69067,-4.77867 -2.76267,0 -5.6,0.896 -2.83733,0.82134 -4.85333,2.31467 l -5.376,-11.12533 q 3.50933,-2.16534 8.43733,-3.36 5.00267,-1.26934 9.93067,-1.26934 z m -0.0747,32.18134 q 1.792,0 3.21067,-0.97067 1.41866,-0.97067 2.09066,-2.912 v -2.83733 h -4.18133 q -5.152,0 -5.152,3.43466 0,1.41867 1.04533,2.38934 1.12,0.896 2.98667,0.896 z"
         style="fill:#da121a;fill-opacity:1"
         id="path5258"
         inkscape:connector-curvature="0" />
      <path
         d="m 295.23275,362.64764 q 7.392,0 11.79733,4.55467 4.48,4.55467 4.48,13.73867 v 23.296 h -16.87467 v -20.384 q 0,-7.01867 -4.55466,-7.01867 -2.38933,0 -3.88267,1.792 -1.41866,1.792 -1.41866,5.67467 v 19.936 h -16.87467 v -20.384 q 0,-7.01867 -4.55467,-7.01867 -2.38933,0 -3.88266,1.792 -1.41867,1.792 -1.41867,5.67467 v 19.936 h -16.87467 v -40.84267 h 16.05334 v 3.808 q 4.55466,-4.55467 11.57333,-4.55467 4.10667,0 7.392,1.568 3.28533,1.49334 5.376,4.62934 2.464,-2.98667 5.97333,-4.55467 3.50933,-1.64267 7.69067,-1.64267 z"
         style="fill:#da121a;fill-opacity:1"
         id="path5260"
         inkscape:connector-curvature="0" />
      <path
         d="m 334.73608,404.98364 q -5.22667,0 -10.304,-1.12 -5.07734,-1.12 -8.21334,-2.912 l 4.62934,-11.12533 q 2.83733,1.71733 6.72,2.688 3.88266,0.97067 7.54133,0.97067 2.912,0 4.032,-0.448 1.19467,-0.52267 1.19467,-1.49334 0,-0.97066 -1.49334,-1.344 -1.41866,-0.37333 -4.704,-0.74666 -5.00266,-0.59734 -8.512,-1.49334 -3.50933,-0.97066 -6.19733,-3.65866 -2.61333,-2.688 -2.61333,-7.69067 0,-3.95733 2.38933,-7.09333 2.38933,-3.136 7.09333,-5.00267 4.77867,-1.86667 11.424,-1.86667 4.62934,0 9.03467,0.896 4.48,0.82134 7.616,2.464 l -4.62933,11.12534 q -5.376,-2.98667 -11.79734,-2.98667 -5.52533,0 -5.52533,1.94133 0,0.97067 1.49333,1.41867 1.49334,0.37333 4.704,0.74667 5.00267,0.59733 8.43734,1.568 3.50933,0.97066 6.12266,3.65866 2.688,2.688 2.688,7.69067 0,3.808 -2.38933,6.944 -2.38933,3.136 -7.168,5.00267 -4.77867,1.86666 -11.57333,1.86666 z"
         style="font-style:normal;font-variant:normal;font-weight:900;font-stretch:normal;font-size:74.66666412px;font-family:Montserrat;-inkscape-font-specification:'Montserrat Heavy'"
         id="path5262"
         inkscape:connector-curvature="0" />
      <path
         d="m 390.99392,402.81831 q -3.808,2.16533 -10.37867,2.16533 -8.58666,0 -13.216,-4.10666 -4.62933,-4.18134 -4.62933,-12.46934 v -10.45333 h -5.6 v -12.32 h 5.6 v -11.424 h 16.87467 v 11.424 h 8.36266 v 12.32 h -8.36266 v 10.304 q 0,1.86667 0.97066,2.912 0.97067,1.04533 2.53867,1.04533 2.16533,0 3.808,-1.12 z"
         style="font-style:normal;font-variant:normal;font-weight:900;font-stretch:normal;font-size:74.66666412px;font-family:Montserrat;-inkscape-font-specification:'Montserrat Heavy'"
         id="path5264"
         inkscape:connector-curvature="0" />
      <path
         d="m 437.60925,383.77831 q 0,0.37333 -0.224,3.95733 h -28.37333 q 0.896,2.31467 2.98667,3.584 2.09066,1.19467 5.22666,1.19467 2.688,0 4.48,-0.672 1.86667,-0.672 4.032,-2.31467 l 8.81067,8.88534 q -5.97333,6.57066 -17.84533,6.57066 -7.392,0 -12.992,-2.688 -5.6,-2.76266 -8.66133,-7.616 -3.06134,-4.85333 -3.06134,-10.90133 0,-6.12267 2.98667,-10.90133 3.06133,-4.85334 8.288,-7.54134 5.30133,-2.688 11.872,-2.688 6.19733,0 11.27466,2.464 5.152,2.464 8.13867,7.24267 3.06133,4.77867 3.06133,11.424 z m -22.32533,-9.632 q -2.61333,0 -4.33067,1.41867 -1.71733,1.41866 -2.24,4.032 h 13.14134 q -0.52267,-2.53867 -2.24,-3.95734 -1.71734,-1.49333 -4.33067,-1.49333 z"
         style="font-style:normal;font-variant:normal;font-weight:900;font-stretch:normal;font-size:74.66666412px;font-family:Montserrat;-inkscape-font-specification:'Montserrat Heavy'"
         id="path5266"
         inkscape:connector-curvature="0" />
      <path
         d="m 458.9149,367.79964 q 4.48,-5.152 13.216,-5.152 v 14.93334 q -2.016,-0.29867 -3.73333,-0.29867 -8.66134,0 -8.66134,8.81067 v 18.144 h -16.87466 v -40.84267 h 16.05333 z"
         style="font-style:normal;font-variant:normal;font-weight:900;font-stretch:normal;font-size:74.66666412px;font-family:Montserrat;-inkscape-font-specification:'Montserrat Heavy'"
         id="path5268"
         inkscape:connector-curvature="0" />
      <path
         d="m 521.57659,348.83431 v 55.40267 h -16.05334 v -3.36 q -3.65866,4.10666 -11.2,4.10666 -5.376,0 -9.93066,-2.53866 -4.48,-2.61334 -7.168,-7.46667 -2.61333,-4.85333 -2.61333,-11.2 0,-6.34667 2.61333,-11.12533 2.688,-4.85334 7.168,-7.392 4.55466,-2.61334 9.93066,-2.61334 6.79467,0 10.37867,3.50934 v -17.32267 z m -23.22134,43.008 q 2.912,0 4.77867,-2.09067 1.86667,-2.16533 1.86667,-5.97333 0,-3.808 -1.86667,-5.89867 -1.86667,-2.09066 -4.77867,-2.09066 -2.912,0 -4.77866,2.09066 -1.86667,2.09067 -1.86667,5.89867 0,3.808 1.86667,5.97333 1.86666,2.09067 4.77866,2.09067 z"
         style="font-style:normal;font-variant:normal;font-weight:900;font-stretch:normal;font-size:74.66666412px;font-family:Montserrat;-inkscape-font-specification:'Montserrat Heavy'"
         id="path5270"
         inkscape:connector-curvature="0" />
      <path
         d="m 547.3424,362.64764 q 10.752,0 16.42667,4.85334 5.67466,4.77866 5.67466,14.784 v 21.952 h -15.68 v -5.376 q -2.912,6.12266 -11.57333,6.12266 -4.85333,0 -8.288,-1.64266 -3.36,-1.71734 -5.152,-4.55467 -1.71733,-2.912 -1.71733,-6.496 0,-6.048 4.62933,-9.184 4.62933,-3.136 14.03733,-3.136 h 6.79467 q -0.82133,-4.77867 -7.69067,-4.77867 -2.76266,0 -5.6,0.896 -2.83733,0.82134 -4.85333,2.31467 l -5.376,-11.12533 q 3.50933,-2.16534 8.43733,-3.36 5.00267,-1.26934 9.93067,-1.26934 z m -0.0747,32.18134 q 1.792,0 3.21067,-0.97067 1.41867,-0.97067 2.09067,-2.912 v -2.83733 h -4.18134 q -5.152,0 -5.152,3.43466 0,1.41867 1.04534,2.38934 1.12,0.896 2.98666,0.896 z"
         style="font-style:normal;font-variant:normal;font-weight:900;font-stretch:normal;font-size:74.66666412px;font-family:Montserrat;-inkscape-font-specification:'Montserrat Heavy'"
         id="path5272"
         inkscape:connector-curvature="0" />
      <path
         d="m 630.79523,362.64764 q 7.392,0 11.79734,4.55467 4.48,4.55467 4.48,13.73867 v 23.296 H 630.1979 v -20.384 q 0,-7.01867 -4.55467,-7.01867 -2.38933,0 -3.88266,1.792 -1.41867,1.792 -1.41867,5.67467 v 19.936 h -16.87467 v -20.384 q 0,-7.01867 -4.55466,-7.01867 -2.38934,0 -3.88267,1.792 -1.41867,1.792 -1.41867,5.67467 v 19.936 h -16.87466 v -40.84267 h 16.05333 v 3.808 q 4.55467,-4.55467 11.57333,-4.55467 4.10667,0 7.392,1.568 3.28534,1.49334 5.376,4.62934 2.464,-2.98667 5.97334,-4.55467 3.50933,-1.64267 7.69066,-1.64267 z"
         style="font-style:normal;font-variant:normal;font-weight:900;font-stretch:normal;font-size:74.66666412px;font-family:Montserrat;-inkscape-font-specification:'Montserrat Heavy'"
         id="path5274"
         inkscape:connector-curvature="0" />
    </g>
  </g>
</svg>
